<svg width="61" height="61" viewBox="0 0 61 61" fill="none" xmlns="http://www.w3.org/2000/svg">
<path d="M60.4596 30.8151C60.4596 47.3613 47.0462 60.7747 30.5 60.7747C13.9538 60.7747 0.540405 47.3613 0.540405 30.8151C0.540405 14.2688 13.9538 0.855469 30.5 0.855469C47.0462 0.855469 60.4596 14.2688 60.4596 30.8151ZM4.80936 30.8151C4.80936 45.0036 16.3115 56.5057 30.5 56.5057C44.6885 56.5057 56.1906 45.0036 56.1906 30.8151C56.1906 16.6265 44.6885 5.12442 30.5 5.12442C16.3115 5.12442 4.80936 16.6265 4.80936 30.8151Z" fill="#E9F8EF"/>
<path d="M55.1746 47.8075C58.3024 43.2656 60.1159 37.9485 60.4154 32.4419C60.7148 26.9353 59.4886 21.4529 56.8717 16.5986C54.2549 11.7443 50.349 7.70644 45.5842 4.92985C40.8195 2.15327 35.3808 0.745684 29.8673 0.862151L29.9574 5.13015C34.6853 5.03028 39.349 6.2373 43.4348 8.61825C47.5207 10.9992 50.87 14.4617 53.114 18.6243C55.358 22.7869 56.4095 27.4881 56.1527 32.2101C55.896 36.932 54.3408 41.4915 51.6587 45.3862L55.1746 47.8075Z" fill="#27AE60"/>
<path d="M27.1099 37.5967L33.8901 30.8164L27.1099 24.0361" stroke="#27AE60" stroke-width="3" stroke-linecap="round" stroke-linejoin="round"/>
</svg>
